<svg xmlns="http://www.w3.org/2000/svg">
  <!-- TODO: arrow linear -->

  <!-- + ARROWS: major - minor - up - down -->
  <!-- arrow-linear-left -->
  <symbol id="arrow-linear-left" viewBox="0 0 24 24"><svg xmlns="http://www.w3.org/2000/svg" viewBox="0 0 24 24" fill="none" stroke="currentColor" stroke-width="2" stroke-linecap="round" stroke-linejoin="round" class="lucide lucide-chevron-left"><path d="m15 18-6-6 6-6"/></svg></symbol>

  <!-- Arrow linear right -->
  <symbol id="arrow-linear-right" viewBox="0 0 24 24"><svg xmlns="http://www.w3.org/2000/svg" viewBox="0 0 24 24" fill="none" stroke="currentColor" stroke-width="2" stroke-linecap="round" stroke-linejoin="round" class="lucide lucide-chevron-right"><path d="m9 18 6-6-6-6"/></svg></symbol>

  <!-- Arrow linear up -->
  <symbol id="arrow-linear-up" viewBox="0 0 24 24"><svg xmlns="http://www.w3.org/2000/svg" viewBox="0 0 24 24" fill="none" stroke="currentColor" stroke-width="2" stroke-linecap="round" stroke-linejoin="round" class="lucide lucide-chevron-up"><path d="m18 15-6-6-6 6"/></svg></symbol>

  <!-- Arrow down -->
  <symbol id="arrow-linear-down" viewBox="0 0 24 24"><svg xmlns="http://www.w3.org/2000/svg" viewBox="0 0 24 24" fill="none" stroke="currentColor" stroke-width="2" stroke-linecap="round" stroke-linejoin="round" class="lucide lucide-chevron-down"><path d="m6 9 6 6 6-6"/></svg></symbol>  

  <!-- + LINES: right - left - top - down - up -->
  <!-- arrow-line-left -->
  <symbol id="arrow-line-left" viewBox="0 0 24 24"><svg viewBox="0 0 24 24" fill="none" xmlns="http://www.w3.org/2000/svg"><path d="M9.57 5.92999L3.5 12L9.57 18.07" stroke="currentColor" stroke-width="2" stroke-miterlimit="10" stroke-linecap="round" stroke-linejoin="round"/><path d="M20.5 12H3.67004" stroke="currentColor" stroke-width="2" stroke-miterlimit="10" stroke-linecap="round" stroke-linejoin="round"/></svg></symbol>

  <!-- arrow-line-right -->
  <symbol id="arrow-line-right" viewBox="0 0 24 24"><svg xmlns="http://www.w3.org/2000/svg" viewBox="0 0 24 24" fill="none" stroke="currentColor" stroke-width="2" stroke-linecap="round" stroke-linejoin="round" class="lucide lucide-arrow-up-right"><path d="M7 7h10v10"/><path d="M7 17 17 7"/></svg></symbol>

  <!-- arrow-line-top -->
  <symbol id="arrow-line-top" viewBox="0 0 24 24"><svg viewBox="0 0 24 24" fill="none" xmlns="http://www.w3.org/2000/svg"><path d="M18.1896 14.7619L18.1896 6.17758L9.60532 6.17757" stroke="currentColor" stroke-width="2" stroke-miterlimit="10" stroke-linecap="round" stroke-linejoin="round"/><path d="M5.98684 18.0074L17.8875 6.10675" stroke="currentColor" stroke-width="2" stroke-miterlimit="10" stroke-linecap="round" stroke-linejoin="round"/></svg></symbol>

  <!-- arrow-line-down -->
  <symbol id="arrow-line-down" viewBox="0 0 24 24"><svg viewBox="0 0 24 24" fill="none" xmlns="http://www.w3.org/2000/svg"><path d="M18.07 14.43L12 20.5L5.92999 14.43" stroke="currentColor" stroke-width="1.5" stroke-miterlimit="10" stroke-linecap="round" stroke-linejoin="round"/><path d="M12 3.5V20.33" stroke="currentColor" stroke-width="1.5" stroke-miterlimit="10" stroke-linecap="round" stroke-linejoin="round"/></svg></symbol>

  <!-- close -->
  <symbol id="close" viewBox="0 0 24 24"><svg xmlns="http://www.w3.org/2000/svg" viewBox="0 0 24 24" fill="none" stroke="currentColor" stroke-width="2" stroke-linecap="round" stroke-linejoin="round" class="lucide lucide-x"><path d="M18 6 6 18"/><path d="m6 6 12 12"/></svg></symbol>

  <!-- + EYES: on - off -->
  <!-- eyes-on -->
  <symbol id="eye-on" viewBox="0 0 24 24"><svg xmlns="http://www.w3.org/2000/svg" viewBox="0 0 24 24" fill="none" stroke="currentColor" stroke-width="2" stroke-linecap="round" stroke-linejoin="round" class="lucide lucide-eye"><path d="M2 12s3-7 10-7 10 7 10 7-3 7-10 7-10-7-10-7Z"/><circle cx="12" cy="12" r="3"/></svg></symbol>

  <!-- eyes-off -->
  <symbol id="eye-off" viewBox="0 0 24 24"><svg xmlns="http://www.w3.org/2000/svg" viewBox="0 0 24 24" fill="none" stroke="currentColor" stroke-width="2" stroke-linecap="round" stroke-linejoin="round" class="lucide lucide-eye-off"><path d="M9.88 9.88a3 3 0 1 0 4.24 4.24"/><path d="M10.73 5.08A10.43 10.43 0 0 1 12 5c7 0 10 7 10 7a13.16 13.16 0 0 1-1.67 2.68"/><path d="M6.61 6.61A13.526 13.526 0 0 0 2 12s3 7 10 7a9.74 9.74 0 0 0 5.39-1.61"/><line x1="2" x2="22" y1="2" y2="22"/></svg></symbol>

  <!-- mail -->
  <symbol id="mail" viewBox="0 0 24 24"><svg xmlns="http://www.w3.org/2000/svg" viewBox="0 0 24 24" fill="none" stroke="currentColor" stroke-width="2" stroke-linecap="round" stroke-linejoin="round" class="lucide lucide-mail"><rect width="20" height="16" x="2" y="4" rx="2"/><path d="m22 7-8.97 5.7a1.94 1.94 0 0 1-2.06 0L2 7"/></svg></symbol>

  <!-- mail-search -->
  <symbol id="mail-search" viewBox="0 0 24 24"><svg xmlns="http://www.w3.org/2000/svg" viewBox="0 0 24 24" fill="none" stroke="currentColor" stroke-width="2" stroke-linecap="round" stroke-linejoin="round" class="lucide lucide-mail-search"><path d="M22 12.5V6a2 2 0 0 0-2-2H4a2 2 0 0 0-2 2v12c0 1.1.9 2 2 2h7.5"/><path d="m22 7-8.97 5.7a1.94 1.94 0 0 1-2.06 0L2 7"/><path d="M18 21a3 3 0 1 0 0-6 3 3 0 0 0 0 6v0Z"/><circle cx="18" cy="18" r="3"/><path d="m22 22-1.5-1.5"/></svg></symbol>

  <!-- lock-close -->
  <symbol id="lock-close" viewBox="0 0 24 24"><svg xmlns="http://www.w3.org/2000/svg" viewBox="0 0 24 24" fill="none" stroke="currentColor" stroke-width="2" stroke-linecap="round" stroke-linejoin="round" class="lucide lucide-lock"><rect width="18" height="11" x="3" y="11" rx="2" ry="2"/><path d="M7 11V7a5 5 0 0 1 10 0v4"/></svg></symbol>

  <!-- lock-open -->
  <symbol id="lock-open" viewBox="0 0 24 24"><svg xmlns="http://www.w3.org/2000/svg" viewBox="0 0 24 24" fill="none" stroke="currentColor" stroke-width="2" stroke-linecap="round" stroke-linejoin="round" class="lucide lucide-unlock"><rect width="18" height="11" x="3" y="11" rx="2" ry="2"/><path d="M7 11V7a5 5 0 0 1 9.9-1"/></svg></symbol>

  <!-- shield-lock-linear -->
  <symbol id="shield-lock-linear" viewBox="0 0 24 24"><svg xmlns="http://www.w3.org/2000/svg" width="24" height="24" viewBox="0 0 24 24"><path fill="currentColor" d="M12 12q-.846 0-1.423-.577Q10 10.846 10 10q0-.846.577-1.423Q11.154 8 12 8q.846 0 1.423.577Q14 9.154 14 10q0 .846-.577 1.423Q12.846 12 12 12Zm-5 9.462v-6.59q-.95-.935-1.475-2.193Q5 11.42 5 10q0-2.931 2.033-4.966Q9.067 3 11.997 3q2.93 0 4.966 2.034Q19 7.07 19 10q0 1.42-.525 2.679Q17.95 13.937 17 14.87v6.59l-5-1.5l-5 1.5ZM12 16q2.5 0 4.25-1.75T18 10q0-2.5-1.75-4.25T12 4Q9.5 4 7.75 5.75T6 10q0 2.5 1.75 4.25T12 16Zm-4 4.044l4-1.12l4 1.12v-4.33q-.837.615-1.863.95q-1.026.336-2.141.336t-2.137-.336Q8.837 16.33 8 15.714v4.33Zm4-2.165Z"/></svg></symbol>

  <!-- + MENUS:  -->
  <!-- menu-alt-linear -->
  <symbol id="menu-alt-linear" viewBox="0 0 24 24"><svg xmlns="http://www.w3.org/2000/svg" viewBox="0 0 24 24"><path fill="none" stroke="currentColor" stroke-linecap="round" stroke-linejoin="round" stroke-width="2" d="M11 17h8M5 12h14m-8-5h8"/></svg></symbol>

  <!-- menu-alt-right-lienar -->
  <symbol id="menu-alt-right-lienar" viewBox="0 0 24 24"><svg xmlns="http://www.w3.org/2000/svg" viewBox="0 0 24 24"><path fill="currentColor" d="M4 6a1 1 0 0 1 1-1h14a1 1 0 1 1 0 2H5a1 1 0 0 1-1-1Zm0 12a1 1 0 0 1 1-1h14a1 1 0 1 1 0 2H5a1 1 0 0 1-1-1Zm7-7a1 1 0 1 0 0 2h8a1 1 0 1 0 0-2h-8Z"/></svg></symbol>

  <!-- + SEND: -->
  <!-- send-linear -->
  <symbol id="send-linear" viewBox="0 0 24 24"><svg xmlns="http://www.w3.org/2000/svg" viewBox="0 0 24 24" fill="none" stroke="currentColor" stroke-width="2" stroke-linecap="round" stroke-linejoin="round" class="lucide lucide-send"><path d="m22 2-7 20-4-9-9-4Z"/><path d="M22 2 11 13"/></svg></symbol>

  <!-- + MOON SUN: on - off  -->
  <!-- moon-on-linear -->
  <symbol id="moon-on-linear" viewBox="0 0 24 24"><svg xmlns="http://www.w3.org/2000/svg" viewBox="0 0 24 24" fill="none" stroke="currentColor" stroke-width="2" stroke-linecap="round" stroke-linejoin="round" class="lucide lucide-moon"><path d="M12 3a6 6 0 0 0 9 9 9 9 0 1 1-9-9Z"/></svg></symbol>

  <!-- moon-off-linear -->
  <symbol id="moon-off-linear" viewBox="0 0 24 24"><svg xmlns="http://www.w3.org/2000/svg" viewBox="0 0 24 24" stroke-width="2" stroke="currentColor" fill="none" stroke-linecap="round" stroke-linejoin="round"><path stroke="none" d="M0 0h24v24H0z" fill="none"></path><path d="M7.962 3.949a8.97 8.97 0 0 1 4.038 -.957v.008h.393a7.478 7.478 0 0 0 -2.07 3.308m-.141 3.84c.186 .823 .514 1.626 .989 2.373a7.49 7.49 0 0 0 4.586 3.268m3.893 -.11c.223 -.067 .444 -.144 .663 -.233a9.088 9.088 0 0 1 -.274 .597m-1.695 2.337a9 9 0 0 1 -12.71 -12.749"></path><path d="M3 3l18 18"></path></svg></symbol>

  <!-- sun-on-linear -->
  <symbol id="sun-on-linear" viewBox="0 0 24 24"><svg xmlns="http://www.w3.org/2000/svg" viewBox="0 0 24 24" fill="none" stroke="currentColor" stroke-width="2" stroke-linecap="round" stroke-linejoin="round" class="lucide lucide-sun"><circle cx="12" cy="12" r="4"/><path d="M12 2v2"/><path d="M12 20v2"/><path d="m4.93 4.93 1.41 1.41"/><path d="m17.66 17.66 1.41 1.41"/><path d="M2 12h2"/><path d="M20 12h2"/><path d="m6.34 17.66-1.41 1.41"/><path d="m19.07 4.93-1.41 1.41"/></svg></symbol>

  <!-- sun-off-linear -->
  <symbol id="sun-off-linear" viewBox="0 0 24 24"><svg xmlns="http://www.w3.org/2000/svg" viewBox="0 0 24 24" stroke-width="2" stroke="currentColor" fill="none" stroke-linecap="round" stroke-linejoin="round"><path stroke="none" d="M0 0h24v24H0z" fill="none"></path><path d="M12 12m-4 0a4 4 0 1 0 8 0a4 4 0 1 0 -8 0"></path><path d="M4 12h.01"></path><path d="M12 4v.01"></path><path d="M20 12h.01"></path><path d="M12 20v.01"></path><path d="M6.31 6.31l-.01 -.01"></path><path d="M17.71 6.31l-.01 -.01"></path><path d="M17.7 17.7l.01 .01"></path><path d="M6.3 17.7l.01 .01"></path></svg></symbol>

  <!-- toga -->
  <symbol id="toga" viewBox="0 0 512 512"><svg xmlns="http://www.w3.org/2000/svg" viewBox="0 0 24 24" fill="none" stroke="currentColor" stroke-width="2" stroke-linecap="round" stroke-linejoin="round" class="lucide lucide-graduation-cap"><path d="M22 10v6M2 10l10-5 10 5-10 5z"/><path d="M6 12v5c3 3 9 3 12 0v-5"/></svg></symbol>

  <!-- scholarship-recipients -->
  <symbol id="scholarship-recipients" viewBox="0 0 36 36"><svg xmlns="http://www.w3.org/2000/svg" viewBox="0 0 36 36"><path fill="currentColor" d="M7 16h11v1.6H7z" class="clr-i-outline--alerted clr-i-outline-path-1--alerted"/><path fill="currentColor" d="M7 23h10v1.6H7z" class="clr-i-outline--alerted clr-i-outline-path-2--alerted"/><path fill="currentColor" d="M27.46 17.23a6.36 6.36 0 0 0-4.4 11l-1.94 2.37l.9 3.61l3.66-4.46a6.26 6.26 0 0 0 3.55 0l3.66 4.46l.9-3.61l-1.94-2.37a6.36 6.36 0 0 0-4.4-11Zm0 10.68a4.31 4.31 0 1 1 4.37-4.31a4.35 4.35 0 0 1-4.37 4.31Z" class="clr-i-outline--alerted clr-i-outline-path-3--alerted"/><path fill="currentColor" d="M19 13.56a3.66 3.66 0 0 1-.43-1.56H7v1.6h12.07Z" class="clr-i-outline--alerted clr-i-outline-path-4--alerted"/><path fill="currentColor" d="M33.68 15.4H32v1.16a8.41 8.41 0 0 1 2 1.81v-3Z" class="clr-i-outline--alerted clr-i-outline-path-5--alerted"/><path fill="currentColor" d="M4 28V8h16.14l1.15-2H4a2 2 0 0 0-2 2v20a2 2 0 0 0 2 2h15l.57-.7l.93-1.14l-.09-.16Z" class="clr-i-outline--alerted clr-i-outline-path-6--alerted"/><path fill="currentColor" d="M26.85 1.14L21.13 11a1.28 1.28 0 0 0 1.1 2h11.45a1.28 1.28 0 0 0 1.1-2l-5.72-9.86a1.28 1.28 0 0 0-2.21 0Z" class="clr-i-outline--alerted clr-i-outline-path-7--alerted clr-i-alert"/><path fill="none" d="M0 0h36v36H0z"/></svg></symbol>

  <!-- tuition -->
  <symbol id="tuition" viewBox="0 0 24 24"><svg xmlns="http://www.w3.org/2000/svg" viewBox="0 0 24 24"><g fill="none" stroke="currentColor" stroke-linecap="round" stroke-linejoin="round"><path d="M6 6h8m-8 4h12m-5 4h5m-5 4h5M2 21.4V2.6a.6.6 0 0 1 .6-.6h15.652a.6.6 0 0 1 .424.176l3.148 3.148A.6.6 0 0 1 22 5.75V21.4a.6.6 0 0 1-.6.6H2.6a.6.6 0 0 1-.6-.6Z"/><path d="M6 18v-4h3v4H6ZM18 2v3.4a.6.6 0 0 0 .6.6H22"/></g></svg></symbol>

  <!-- person-standing -->
  <symbol id="person-standing" viewBox="0 0 24 24"><svg xmlns="http://www.w3.org/2000/svg" viewBox="0 0 24 24" fill="none" stroke="currentColor" stroke-width="2" stroke-linecap="round" stroke-linejoin="round" class="lucide lucide-person-standing"><circle cx="12" cy="5" r="1"/><path d="m9 20 3-6 3 6"/><path d="m6 8 6 2 6-2"/><path d="M12 10v4"/></svg></symbol>

  <!-- psychologist -->
  <symbol id="psychologist" viewBox="0 0 24 24"><svg xmlns="http://www.w3.org/2000/svg" viewBox="0 0 24 24" fill="none" stroke="currentColor" stroke-width="2" stroke-linecap="round" stroke-linejoin="round" class="lucide lucide-brain-circuit"><path d="M12 4.5a2.5 2.5 0 0 0-4.96-.46 2.5 2.5 0 0 0-1.98 3 2.5 2.5 0 0 0-1.32 4.24 3 3 0 0 0 .34 5.58 2.5 2.5 0 0 0 2.96 3.08 2.5 2.5 0 0 0 4.91.05L12 20V4.5Z"/><path d="M16 8V5c0-1.1.9-2 2-2"/><path d="M12 13h4"/><path d="M12 18h6a2 2 0 0 1 2 2v1"/><path d="M12 8h8"/><path d="M20.5 8a.5.5 0 1 1-1 0 .5.5 0 0 1 1 0Z"/><path d="M16.5 13a.5.5 0 1 1-1 0 .5.5 0 0 1 1 0Z"/><path d="M20.5 21a.5.5 0 1 1-1 0 .5.5 0 0 1 1 0Z"/><path d="M18.5 3a.5.5 0 1 1-1 0 .5.5 0 0 1 1 0Z"/></svg></symbol>
  
  <!-- hands -->
  <symbol id="hands" viewBox="0 0 24 24"><svg xmlns="http://www.w3.org/2000/svg" viewBox="0 0 24 24" fill="none" stroke="currentColor" stroke-width="2" stroke-linecap="round" stroke-linejoin="round" class="lucide lucide-heart-handshake"><path d="M19 14c1.49-1.46 3-3.21 3-5.5A5.5 5.5 0 0 0 16.5 3c-1.76 0-3 .5-4.5 2-1.5-1.5-2.74-2-4.5-2A5.5 5.5 0 0 0 2 8.5c0 2.3 1.5 4.05 3 5.5l7 7Z"/><path d="M12 5 9.04 7.96a2.17 2.17 0 0 0 0 3.08v0c.82.82 2.13.85 3 .07l2.07-1.9a2.82 2.82 0 0 1 3.79 0l2.96 2.66"/><path d="m18 15-2-2"/><path d="m15 18-2-2"/></svg></symbol>

  <!-- cross -->
  <symbol id="cross" viewBox="0 0 256 256"><svg xmlns="http://www.w3.org/2000/svg" viewBox="0 0 24 24" fill="none" stroke="currentColor" stroke-width="2" stroke-linecap="round" stroke-linejoin="round" class="lucide lucide-cross"><path d="M11 2a2 2 0 0 0-2 2v5H4a2 2 0 0 0-2 2v2c0 1.1.9 2 2 2h5v5c0 1.1.9 2 2 2h2a2 2 0 0 0 2-2v-5h5a2 2 0 0 0 2-2v-2a2 2 0 0 0-2-2h-5V4a2 2 0 0 0-2-2h-2z"/></svg></symbol>

  <!-- users -->
  <symbol id="users" viewBox="0 0 24 24"><svg xmlns="http://www.w3.org/2000/svg" viewBox="0 0 24 24" fill="none" stroke="currentColor" stroke-width="2" stroke-linecap="round" stroke-linejoin="round" class="lucide lucide-users"><path d="M16 21v-2a4 4 0 0 0-4-4H6a4 4 0 0 0-4 4v2"/><circle cx="9" cy="7" r="4"/><path d="M22 21v-2a4 4 0 0 0-3-3.87"/><path d="M16 3.13a4 4 0 0 1 0 7.75"/></svg></symbol>

  <!-- messages-square -->
  <symbol id="messages-square" viewBox="0 0 24 24"><svg xmlns="http://www.w3.org/2000/svg" viewBox="0 0 24 24" fill="none" stroke="currentColor" stroke-width="2" stroke-linecap="round" stroke-linejoin="round" class="lucide lucide-messages-square"><path d="M14 9a2 2 0 0 1-2 2H6l-4 4V4c0-1.1.9-2 2-2h8a2 2 0 0 1 2 2v5Z"/><path d="M18 9h2a2 2 0 0 1 2 2v11l-4-4h-6a2 2 0 0 1-2-2v-1"/></svg></symbol>

  <!-- money -->
  <symbol id="money" viewBox="0 0 24 24"><svg xmlns="http://www.w3.org/2000/svg" viewBox="0 0 24 24" fill="none" stroke="currentColor" stroke-width="2" stroke-linecap="round" stroke-linejoin="round" class="lucide lucide-receipt"><path d="M4 2v20l2-1 2 1 2-1 2 1 2-1 2 1 2-1 2 1V2l-2 1-2-1-2 1-2-1-2 1-2-1-2 1-2-1Z"/><path d="M16 8h-6a2 2 0 1 0 0 4h4a2 2 0 1 1 0 4H8"/><path d="M12 17V7"/></svg></symbol>

  <!-- degree -->
  <symbol id="degree" viewBox="0 0 24 24"><svg xmlns="http://www.w3.org/2000/svg" viewBox="0 0 24 24" fill="none" stroke="currentColor" stroke-width="2" stroke-linecap="round" stroke-linejoin="round" class="lucide lucide-award"><circle cx="12" cy="8" r="6"/><path d="M15.477 12.89 17 22l-5-3-5 3 1.523-9.11"/></svg></symbol>

  <!-- work -->
  <symbol id="work" viewBox="0 0 24 24"><svg xmlns="http://www.w3.org/2000/svg" viewBox="0 0 24 24"><path fill="currentColor" d="m15.68 15.05l.64-.627l-2.447-2.446q.275-.425.393-.804q.119-.379.119-.904q0-1.206-.846-2.045q-.845-.84-2.039-.84t-2.04.84q-.845.84-.845 2.045q0 1.206.846 2.045q.845.84 2.039.84q.525 0 .91-.138q.386-.137.836-.412l2.435 2.446Zm-4.18-2.78q-.825 0-1.413-.588T9.5 10.269q0-.825.588-1.412t1.412-.588q.82 0 1.41.588q.59.587.59 1.412t-.588 1.413q-.587.587-1.412.587Zm-9.23 7.192q-.214 0-.358-.144q-.143-.143-.143-.356q0-.214.143-.357q.144-.143.357-.143h19.462q.213 0 .356.143q.144.143.144.357q0 .213-.144.356t-.356.144H2.269Zm2.345-2q-.69 0-1.153-.463Q3 16.537 3 15.846v-9.77q0-.69.463-1.152t1.152-.462h14.77q.69 0 1.152.462q.463.463.463 1.153v9.77q0 .69-.463 1.152t-1.152.463H4.615Zm0-1h14.77q.23 0 .423-.193q.192-.192.192-.423v-9.77q0-.23-.192-.422q-.193-.192-.423-.192H4.615q-.23 0-.423.192Q4 5.846 4 6.077v9.77q0 .23.192.422q.193.193.423.193Zm-.615 0v-11v11Z"/></svg></symbol>

  <!-- toga -->
  <symbol id="toga" viewBox="0 0 24 24"><svg xmlns="http://www.w3.org/2000/svg" viewBox="0 0 256 256"><path fill="currentColor" d="m250.82 90.71l-120-64a5.94 5.94 0 0 0-5.64 0l-120 64a6 6 0 0 0 0 10.58L34 116.67v49.62a14 14 0 0 0 3.55 9.32C50.42 189.94 79.29 214 128 214a127.21 127.21 0 0 0 50-9.73V240a6 6 0 0 0 12 0v-41.65a113.18 113.18 0 0 0 28.45-22.75a13.91 13.91 0 0 0 3.55-9.31v-49.62l28.82-15.38a6 6 0 0 0 0-10.58ZM128 202c-44 0-70-21.56-81.52-34.41a2 2 0 0 1-.48-1.3v-43.22l79.18 42.22a6 6 0 0 0 5.64 0L178 140.13v51c-13 6.22-29.55 10.87-50 10.87Zm82-35.71a2 2 0 0 1-.48 1.3A100.25 100.25 0 0 1 190 184.3v-50.57l20-10.66Zm-22.15-45a6.27 6.27 0 0 0-1-.71l-56-29.86a6 6 0 0 0-5.64 10.58l50.04 26.7L128 153.2L20.75 96L128 38.8L235.25 96Z"/></svg></symbol>


  <!-- TODO: Others -->
  <!-- medal -->
  <symbol id="medal" viewBox="0 0 24 24"><svg xmlns="http://www.w3.org/2000/svg" viewBox="0 0 24 24" fill="none" stroke="currentColor" stroke-width="2" stroke-linecap="round" stroke-linejoin="round" class="lucide lucide-medal"><path d="M7.21 15 2.66 7.14a2 2 0 0 1 .13-2.2L4.4 2.8A2 2 0 0 1 6 2h12a2 2 0 0 1 1.6.8l1.6 2.14a2 2 0 0 1 .14 2.2L16.79 15"/><path d="M11 12 5.12 2.2"/><path d="m13 12 5.88-9.8"/><path d="M8 7h8"/><circle cx="12" cy="17" r="5"/><path d="M12 18v-2h-.5"/></svg></symbol>

  <!-- shapes -->
  <symbol id="shapes" viewBox="0 0 24 24"><svg xmlns="http://www.w3.org/2000/svg" viewBox="0 0 24 24" fill="none" stroke="currentColor" stroke-width="2" stroke-linecap="round" stroke-linejoin="round" class="lucide lucide-shapes"><path d="M8.3 10a.7.7 0 0 1-.626-1.079L11.4 3a.7.7 0 0 1 1.198-.043L16.3 8.9a.7.7 0 0 1-.572 1.1Z"/><rect x="3" y="14" width="7" height="7" rx="1"/><circle cx="17.5" cy="17.5" r="3.5"/></svg></symbol>

  <!-- job -->
  <symbol id="job" viewBox="0 0 24 24"><svg xmlns="http://www.w3.org/2000/svg" viewBox="0 0 24 24" fill="none" stroke="currentColor" stroke-width="2" stroke-linecap="round" stroke-linejoin="round" class="lucide lucide-briefcase"><rect width="20" height="14" x="2" y="7" rx="2" ry="2"/><path d="M16 21V5a2 2 0 0 0-2-2h-4a2 2 0 0 0-2 2v16"/></svg></symbol>

  <!-- job-offer -->
  <symbol id="job-offer" viewBox="0 0 24 24"><svg xmlns="http://www.w3.org/2000/svg" viewBox="0 0 24 24" fill="none" stroke="currentColor" stroke-width="2" stroke-linecap="round" stroke-linejoin="round" class="lucide lucide-upload-cloud"><path d="M4 14.899A7 7 0 1 1 15.71 8h1.79a4.5 4.5 0 0 1 2.5 8.242"/><path d="M12 12v9"/><path d="m16 16-4-4-4 4"/></svg></symbol>

  <!-- corporate -->
  <symbol id="corporate" viewBox="0 0 24 24"><svg xmlns="http://www.w3.org/2000/svg" viewBox="0 0 24 24" fill="none" stroke="currentColor" stroke-width="2" stroke-linecap="round" stroke-linejoin="round" class="lucide lucide-building-2"><path d="M6 22V4a2 2 0 0 1 2-2h8a2 2 0 0 1 2 2v18Z"/><path d="M6 12H4a2 2 0 0 0-2 2v6a2 2 0 0 0 2 2h2"/><path d="M18 9h2a2 2 0 0 1 2 2v9a2 2 0 0 1-2 2h-2"/><path d="M10 6h4"/><path d="M10 10h4"/><path d="M10 14h4"/><path d="M10 18h4"/></svg></symbol>

  <!-- cv -->
  <symbol id="cv" viewBox="0 0 24 24"><svg xmlns="http://www.w3.org/2000/svg" viewBox="0 0 24 24" fill="none" stroke="currentColor" stroke-width="2" stroke-linecap="round" stroke-linejoin="round" class="lucide lucide-file-spreadsheet"><path d="M14.5 2H6a2 2 0 0 0-2 2v16a2 2 0 0 0 2 2h12a2 2 0 0 0 2-2V7.5L14.5 2z"/><polyline points="14 2 14 8 20 8"/><path d="M8 13h2"/><path d="M8 17h2"/><path d="M14 13h2"/><path d="M14 17h2"/></svg></symbol>

  <!-- identification -->
  <symbol id="identification" viewBox="0 0 24 24"><svg xmlns="http://www.w3.org/2000/svg" viewBox="0 0 24 24" fill="none" stroke="currentColor" stroke-width="2" stroke-linecap="round" stroke-linejoin="round" class="lucide lucide-user-square-2"><path d="M18 21a6 6 0 0 0-12 0"/><circle cx="12" cy="11" r="4"/><rect width="18" height="18" x="3" y="3" rx="2"/></svg></symbol>

  <!-- licence - carnet -->
  <symbol id="licence" viewBox="0 0 24 24"><svg xmlns="http://www.w3.org/2000/svg" viewBox="0 0 24 24" fill="none" stroke="currentColor" stroke-width="2" stroke-linecap="round" stroke-linejoin="round" class="lucide lucide-contact-2"><path d="M16 18a4 4 0 0 0-8 0"/><circle cx="12" cy="11" r="3"/><rect width="18" height="18" x="3" y="4" rx="2"/><line x1="8" x2="8" y1="2" y2="4"/><line x1="16" x2="16" y1="2" y2="4"/></svg></symbol>

  <!-- certificate - certificado -->
  <symbol id="certificate" viewBox="0 0 36 36"><svg xmlns="http://www.w3.org/2000/svg" viewBox="0 0 36 36"><path fill="currentColor" d="M32 6H4a2 2 0 0 0-2 2v20a2 2 0 0 0 2 2h15l.57-.7l.93-1.14l-.09-.16H4V8h28v8.56a8.41 8.41 0 0 1 2 1.81V8a2 2 0 0 0-2-2Z" class="clr-i-outline clr-i-outline-path-1"/><path fill="currentColor" d="M7 12h17v1.6H7z" class="clr-i-outline clr-i-outline-path-2"/><path fill="currentColor" d="M7 16h11v1.6H7z" class="clr-i-outline clr-i-outline-path-3"/><path fill="currentColor" d="M7 23h10v1.6H7z" class="clr-i-outline clr-i-outline-path-4"/><path fill="currentColor" d="M27.46 17.23a6.36 6.36 0 0 0-4.4 11l-1.94 2.37l.9 3.61l3.66-4.46a6.26 6.26 0 0 0 3.55 0l3.66 4.46l.9-3.61l-1.94-2.37a6.36 6.36 0 0 0-4.4-11Zm0 10.68a4.31 4.31 0 1 1 4.37-4.31a4.35 4.35 0 0 1-4.37 4.31Z" class="clr-i-outline clr-i-outline-path-5"/><path fill="none" d="M0 0h36v36H0z"/></svg></symbol>

  <!-- file-text -->
  <symbol id="file-text" viewBox="0 0 24 24"><svg xmlns="http://www.w3.org/2000/svg" width="24" height="24" viewBox="0 0 24 24" fill="none" stroke="currentColor" stroke-width="2" stroke-linecap="round" stroke-linejoin="round" class="lucide lucide-file-text"><path d="M14.5 2H6a2 2 0 0 0-2 2v16a2 2 0 0 0 2 2h12a2 2 0 0 0 2-2V7.5L14.5 2z"/><polyline points="14 2 14 8 20 8"/><line x1="16" x2="8" y1="13" y2="13"/><line x1="16" x2="8" y1="17" y2="17"/><line x1="10" x2="8" y1="9" y2="9"/></svg></symbol>

  <!-- book-linear -->
  <symbol id="book-linear" viewBox="0 0 24 24"><svg xmlns="http://www.w3.org/2000/svg" viewBox="0 0 24 24" fill="none" stroke="currentColor" stroke-width="2" stroke-linecap="round" stroke-linejoin="round" class="lucide lucide-book-open"><path d="M2 3h6a4 4 0 0 1 4 4v14a3 3 0 0 0-3-3H2z"/><path d="M22 3h-6a4 4 0 0 0-4 4v14a3 3 0 0 1 3-3h7z"/></svg></symbol>

  <symbol id="arrow-linear" viewBox="0 0 24 24"></symbol>
  <symbol id="arrow-linear" viewBox="0 0 24 24"></symbol>

  <!-- TODO: Networks -->

  <!-- facebook -->
  <symbol id="facebook" viewBox="0 0 24 24"><svg xmlns="http://www.w3.org/2000/svg" viewBox="0 0 24 24" fill="none" stroke="currentColor" stroke-width="2" stroke-linecap="round" stroke-linejoin="round" class="lucide lucide-facebook"><path d="M18 2h-3a5 5 0 0 0-5 5v3H7v4h3v8h4v-8h3l1-4h-4V7a1 1 0 0 1 1-1h3z"/></svg></symbol>

  <!-- instagram -->
  <symbol id="instagram" viewBox="0 0 24 24"><svg xmlns="http://www.w3.org/2000/svg" viewBox="0 0 24 24" fill="none" stroke="currentColor" stroke-width="2" stroke-linecap="round" stroke-linejoin="round" class="lucide lucide-instagram"><rect width="20" height="20" x="2" y="2" rx="5" ry="5"/><path d="M16 11.37A4 4 0 1 1 12.63 8 4 4 0 0 1 16 11.37z"/><line x1="17.5" x2="17.51" y1="6.5" y2="6.5"/></svg></symbol>

  <!-- Github -->
  <symbol id="github" viewBox="0 0 256 250">
    <svg width="100%" height="100%" viewBox="0 0 256 250" version="1.1" xmlns="http://www.w3.org/2000/svg" xmlns:xlink="http://www.w3.org/1999/xlink" preserveAspectRatio="xMidYMid" >
      <g>
          <path d="M128.00106,0 C57.3172926,0 0,57.3066942 0,128.00106 C0,184.555281 36.6761997,232.535542 87.534937,249.460899 C93.9320223,250.645779 96.280588,246.684165 96.280588,243.303333 C96.280588,240.251045 96.1618878,230.167899 96.106777,219.472176 C60.4967585,227.215235 52.9826207,204.369712 52.9826207,204.369712 C47.1599584,189.574598 38.770408,185.640538 38.770408,185.640538 C27.1568785,177.696113 39.6458206,177.859325 39.6458206,177.859325 C52.4993419,178.762293 59.267365,191.04987 59.267365,191.04987 C70.6837675,210.618423 89.2115753,204.961093 96.5158685,201.690482 C97.6647155,193.417512 100.981959,187.77078 104.642583,184.574357 C76.211799,181.33766 46.324819,170.362144 46.324819,121.315702 C46.324819,107.340889 51.3250588,95.9223682 59.5132437,86.9583937 C58.1842268,83.7344152 53.8029229,70.715562 60.7532354,53.0843636 C60.7532354,53.0843636 71.5019501,49.6441813 95.9626412,66.2049595 C106.172967,63.368876 117.123047,61.9465949 128.00106,61.8978432 C138.879073,61.9465949 149.837632,63.368876 160.067033,66.2049595 C184.49805,49.6441813 195.231926,53.0843636 195.231926,53.0843636 C202.199197,70.715562 197.815773,83.7344152 196.486756,86.9583937 C204.694018,95.9223682 209.660343,107.340889 209.660343,121.315702 C209.660343,170.478725 179.716133,181.303747 151.213281,184.472614 C155.80443,188.444828 159.895342,196.234518 159.895342,208.176593 C159.895342,225.303317 159.746968,239.087361 159.746968,243.303333 C159.746968,246.709601 162.05102,250.70089 168.53925,249.443941 C219.370432,232.499507 256,184.536204 256,128.00106 C256,57.3066942 198.691187,0 128.00106,0 Z M47.9405593,182.340212 C47.6586465,182.976105 46.6581745,183.166873 45.7467277,182.730227 C44.8183235,182.312656 44.2968914,181.445722 44.5978808,180.80771 C44.8734344,180.152739 45.876026,179.97045 46.8023103,180.409216 C47.7328342,180.826786 48.2627451,181.702199 47.9405593,182.340212 Z M54.2367892,187.958254 C53.6263318,188.524199 52.4329723,188.261363 51.6232682,187.366874 C50.7860088,186.474504 50.6291553,185.281144 51.2480912,184.70672 C51.8776254,184.140775 53.0349512,184.405731 53.8743302,185.298101 C54.7115892,186.201069 54.8748019,187.38595 54.2367892,187.958254 Z M58.5562413,195.146347 C57.7719732,195.691096 56.4895886,195.180261 55.6968417,194.042013 C54.9125733,192.903764 54.9125733,191.538713 55.713799,190.991845 C56.5086651,190.444977 57.7719732,190.936735 58.5753181,192.066505 C59.3574669,193.22383 59.3574669,194.58888 58.5562413,195.146347 Z M65.8613592,203.471174 C65.1597571,204.244846 63.6654083,204.03712 62.5716717,202.981538 C61.4524999,201.94927 61.1409122,200.484596 61.8446341,199.710926 C62.5547146,198.935137 64.0575422,199.15346 65.1597571,200.200564 C66.2704506,201.230712 66.6095936,202.705984 65.8613592,203.471174 Z M75.3025151,206.281542 C74.9930474,207.284134 73.553809,207.739857 72.1039724,207.313809 C70.6562556,206.875043 69.7087748,205.700761 70.0012857,204.687571 C70.302275,203.678621 71.7478721,203.20382 73.2083069,203.659543 C74.6539041,204.09619 75.6035048,205.261994 75.3025151,206.281542 Z M86.046947,207.473627 C86.0829806,208.529209 84.8535871,209.404622 83.3316829,209.4237 C81.8013,209.457614 80.563428,208.603398 80.5464708,207.564772 C80.5464708,206.498591 81.7483088,205.631657 83.2786917,205.606221 C84.8005962,205.576546 86.046947,206.424403 86.046947,207.473627 Z M96.6021471,207.069023 C96.7844366,208.099171 95.7267341,209.156872 94.215428,209.438785 C92.7295577,209.710099 91.3539086,209.074206 91.1652603,208.052538 C90.9808515,206.996955 92.0576306,205.939253 93.5413813,205.66582 C95.054807,205.402984 96.4092596,206.021919 96.6021471,207.069023 Z" fill="currentColor"></path>
      </g>
    </svg>
  </symbol>

  <!-- Twitter -->
  <symbol id="twitter" viewBox="0 0 256 209">
    <svg width="100%" height="100%" viewBox="0 0 256 209" version="1.1" xmlns="http://www.w3.org/2000/svg" xmlns:xlink="http://www.w3.org/1999/xlink" preserveAspectRatio="xMidYMid"><g><path d="M256,25.4500259 C246.580841,29.6272672 236.458451,32.4504868 225.834156,33.7202333 C236.678503,27.2198053 245.00583,16.9269929 248.927437,4.66307685 C238.779765,10.6812633 227.539325,15.0523376 215.57599,17.408298 C205.994835,7.2006971 192.34506,0.822 177.239197,0.822 C148.232605,0.822 124.716076,24.3375931 124.716076,53.3423116 C124.716076,57.4586875 125.181462,61.4673784 126.076652,65.3112644 C82.4258385,63.1210453 43.7257252,42.211429 17.821398,10.4359288 C13.3005011,18.1929938 10.710443,27.2151234 10.710443,36.8402889 C10.710443,55.061526 19.9835254,71.1374907 34.0762135,80.5557137 C25.4660961,80.2832239 17.3681846,77.9207088 10.2862577,73.9869292 C10.2825122,74.2060448 10.2825122,74.4260967 10.2825122,74.647085 C10.2825122,100.094453 28.3867003,121.322443 52.413563,126.14673 C48.0059695,127.347184 43.3661509,127.988612 38.5755734,127.988612 C35.1914554,127.988612 31.9009766,127.659938 28.694773,127.046602 C35.3777973,147.913145 54.7742053,163.097665 77.7569918,163.52185 C59.7820257,177.607983 37.1354036,186.004604 12.5289147,186.004604 C8.28987161,186.004604 4.10888474,185.75646 0,185.271409 C23.2431033,200.173139 50.8507261,208.867532 80.5109185,208.867532 C177.116529,208.867532 229.943977,128.836982 229.943977,59.4326002 C229.943977,57.1552968 229.893412,54.8901664 229.792282,52.6381454 C240.053257,45.2331635 248.958338,35.9825545 256,25.4500259" fill="#55acee"></path></g></svg>
  </symbol>

  <!-- Linkedin -->
  <symbol id="linkedin" viewBox="0 0 24 24"><svg xmlns="http://www.w3.org/2000/svg" viewBox="0 0 24 24" fill="none" stroke="currentColor" stroke-width="2" stroke-linecap="round" stroke-linejoin="round" class="lucide lucide-linkedin"><path d="M16 8a6 6 0 0 1 6 6v7h-4v-7a2 2 0 0 0-2-2 2 2 0 0 0-2 2v7h-4v-7a6 6 0 0 1 6-6z"/><rect width="4" height="12" x="2" y="9"/><circle cx="4" cy="4" r="2"/></svg></symbol>

  <!-- + WHATSAPP: line - fill -->
  <!-- whatsapp linear -->
  <symbol id="whatsapp-linear" viewBox="0 0 24 24"><svg xmlns="http://www.w3.org/2000/svg" viewBox="0 0 24 24" stroke-width="2" stroke="currentColor" fill="none" stroke-linecap="round" stroke-linejoin="round"><path stroke="none" d="M0 0h24v24H0z" fill="none"></path><path d="M3 21l1.65 -3.8a9 9 0 1 1 3.4 2.9l-5.05 .9"></path><path d="M9 10a.5 .5 0 0 0 1 0v-1a.5 .5 0 0 0 -1 0v1a5 5 0 0 0 5 5h1a.5 .5 0 0 0 0 -1h-1a.5 .5 0 0 0 0 1"></path></svg></symbol>

  <!-- + MAPS: -->
  <!-- maps -->
  <symbol id="maps" viewBox="0 0 24 24"><svg xmlns="http://www.w3.org/2000/svg" viewBox="0 0 24 24" fill="none" stroke="currentColor" stroke-width="2" stroke-linecap="round" stroke-linejoin="round" class="lucide lucide-map-pinned"><path d="M18 8c0 4.5-6 9-6 9s-6-4.5-6-9a6 6 0 0 1 12 0"/><circle cx="12" cy="8" r="2"/><path d="M8.835 14H5a1 1 0 0 0-.9.7l-2 6c-.1.1-.1.2-.1.3 0 .6.4 1 1 1h18c.6 0 1-.4 1-1 0-.1 0-.2-.1-.3l-2-6a1 1 0 0 0-.9-.7h-3.835"/></svg></symbol>


  

  <!-- JavaScript -->
  <!-- <symbol id="javascript" viewBox="0 0 24 24">
  </symbol> -->

</svg>