<svg width="6" height="9" viewBox="0 0 6 9" fill="none" xmlns="http://www.w3.org/2000/svg">
<path d="M2.65027 7.56C2.65027 7.84 2.59427 8.072 2.48227 8.256C2.37027 8.44 2.23027 8.588 2.06227 8.7C1.89427 8.804 1.70627 8.88 1.49827 8.928C1.29827 8.976 1.10627 9 0.922266 9V1.932C0.922266 1.404 1.04227 0.996 1.28227 0.707999C1.52227 0.419999 1.87027 0.275999 2.32627 0.275999C2.55027 0.275999 2.74227 0.316 2.90227 0.396C3.06227 0.468 3.19027 0.564 3.28627 0.684C3.38227 0.804 3.45027 0.944 3.49027 1.104C3.53827 1.256 3.56227 1.416 3.56227 1.584V1.704C3.50627 1.656 3.44227 1.624 3.37027 1.608C3.30627 1.584 3.24227 1.572 3.17827 1.572C3.05827 1.572 2.96227 1.596 2.89027 1.644C2.82627 1.684 2.77427 1.74 2.73427 1.812C2.70227 1.876 2.67827 1.952 2.66227 2.04C2.65427 2.128 2.65027 2.22 2.65027 2.316V7.56ZM3.70627 0.3C3.74627 0.3 3.77827 0.3 3.80227 0.3C3.83427 0.292 3.87027 0.288 3.91027 0.288C4.39827 0.288 4.77427 0.42 5.03827 0.684C5.30227 0.948 5.43427 1.372 5.43427 1.956V4.104C5.43427 4.368 5.39427 4.6 5.31427 4.8C5.24227 5 5.14227 5.172 5.01427 5.316C4.89427 5.452 4.74627 5.556 4.57027 5.628C4.40227 5.7 4.22227 5.736 4.03027 5.736C3.78227 5.736 3.57827 5.696 3.41827 5.616C3.25827 5.536 3.13027 5.432 3.03427 5.304C2.94627 5.168 2.88227 5.016 2.84227 4.848C2.81027 4.68 2.79427 4.512 2.79427 4.344C2.90627 4.408 3.03427 4.44 3.17827 4.44C3.29827 4.44 3.39027 4.42 3.45427 4.38C3.52627 4.332 3.57827 4.276 3.61027 4.212C3.65027 4.14 3.67427 4.06 3.68227 3.972C3.69827 3.884 3.70627 3.792 3.70627 3.696V0.3Z" fill="#151521"/>
</svg>
